<?xml version="1.0" encoding="utf-8"?>
<!-- Generator: Adobe Illustrator 16.0.0, SVG Export Plug-In . SVG Version: 6.00 Build 0)  -->
<!DOCTYPE svg PUBLIC "-//W3C//DTD SVG 1.1//EN" "http://www.w3.org/Graphics/SVG/1.1/DTD/svg11.dtd">
<svg version="1.1"
	 id="Layer_1" image-rendering="auto" shape-rendering="auto" text-rendering="auto" color-rendering="auto" color-interpolation="auto"
	 xmlns="http://www.w3.org/2000/svg" xmlns:xlink="http://www.w3.org/1999/xlink" x="0px" y="0px" width="1195px" height="367px"
	 viewBox="0 0 1195 367" enable-background="new 0 0 1195 367" xml:space="preserve">
<g>
	<g text-rendering="geometricPrecision">
		<rect x="0" fill="#FFFFFF" width="1195" height="367"/>
	</g>
	<g transform="translate(21,171)" text-rendering="geometricPrecision">
		<g>
			<defs>
				<rect id="SVGID_1_" x="-7" y="-7" width="38" height="38"/>
			</defs>
			<clipPath id="SVGID_2_">
				<use xlink:href="#SVGID_1_"  overflow="visible"/>
			</clipPath>
			<circle clip-path="url(#SVGID_2_)" fill="#C3F57A" cx="10" cy="10" r="10"/>
		</g>
	</g>
	<g transform="translate(21,171)" text-rendering="geometricPrecision">
		<g>
			<defs>
				<rect id="SVGID_3_" x="-7" y="-7" width="38" height="38"/>
			</defs>
			<clipPath id="SVGID_4_">
				<use xlink:href="#SVGID_3_"  overflow="visible"/>
			</clipPath>
			
				<circle clip-path="url(#SVGID_4_)" fill="none" stroke="#000000" stroke-linejoin="round" stroke-miterlimit="1" cx="10" cy="10" r="10"/>
		</g>
	</g>
	<g transform="translate(411,161)" text-rendering="geometricPrecision">
		<g>
			<defs>
				<rect id="SVGID_5_" x="-7" y="-17" width="157" height="68"/>
			</defs>
			<clipPath id="SVGID_6_">
				<use xlink:href="#SVGID_5_"  overflow="visible"/>
			</clipPath>
			<path clip-path="url(#SVGID_6_)" fill="#EEF57A" d="M10,0h119c5.522,0,10,4.477,10,10v20c0,5.523-4.478,10-10,10H10
				C4.477,40,0,35.523,0,30V10C0,4.477,4.477,0,10,0z"/>
		</g>
	</g>
	<g transform="translate(411,161)" text-rendering="geometricPrecision">
		<g>
			<defs>
				<rect id="SVGID_7_" x="-7" y="-17" width="157" height="68"/>
			</defs>
			<clipPath id="SVGID_8_">
				<use xlink:href="#SVGID_7_"  overflow="visible"/>
			</clipPath>
			<path clip-path="url(#SVGID_8_)" fill="none" stroke="#000000" stroke-linejoin="round" stroke-miterlimit="1" d="M10,0h119
				c5.522,0,10,4.477,10,10v20c0,5.523-4.478,10-10,10H10C4.477,40,0,35.523,0,30V10C0,4.477,4.477,0,10,0z"/>
		</g>
	</g>
	<g transform="translate(411,161)" text-rendering="geometricPrecision">
		<g>
			<defs>
				<rect id="SVGID_9_" x="0" width="139" height="40"/>
			</defs>
			<clipPath id="SVGID_10_">
				<use xlink:href="#SVGID_9_"  overflow="visible"/>
			</clipPath>
			<g clip-path="url(#SVGID_10_)" enable-background="new    ">
				<text transform="matrix(1 0 0 1 34.9998 24)" font-family="'ArialMT'" font-size="11">Select Option</text>
			</g>
		</g>
	</g>
	<g transform="translate(645,106)" text-rendering="geometricPrecision">
		<g>
			<defs>
				<rect id="SVGID_11_" x="-7" y="-17" width="170" height="68"/>
			</defs>
			<clipPath id="SVGID_12_">
				<use xlink:href="#SVGID_11_"  overflow="visible"/>
			</clipPath>
			<path clip-path="url(#SVGID_12_)" fill="#EEF57A" d="M10,0h132c5.522,0,10,4.477,10,10v20c0,5.523-4.478,10-10,10H10
				C4.477,40,0,35.523,0,30V10C0,4.477,4.477,0,10,0z"/>
		</g>
	</g>
	<g transform="translate(645,106)" text-rendering="geometricPrecision">
		<g>
			<defs>
				<rect id="SVGID_13_" x="-7" y="-17" width="170" height="68"/>
			</defs>
			<clipPath id="SVGID_14_">
				<use xlink:href="#SVGID_13_"  overflow="visible"/>
			</clipPath>
			<path clip-path="url(#SVGID_14_)" fill="none" stroke="#000000" stroke-linejoin="round" stroke-miterlimit="1" d="M10,0h132
				c5.522,0,10,4.477,10,10v20c0,5.523-4.478,10-10,10H10C4.477,40,0,35.523,0,30V10C0,4.477,4.477,0,10,0z"/>
		</g>
	</g>
	<g transform="translate(645,106)" text-rendering="geometricPrecision">
		<g>
			<defs>
				<rect id="SVGID_15_" x="0" width="152" height="40"/>
			</defs>
			<clipPath id="SVGID_16_">
				<use xlink:href="#SVGID_15_"  overflow="visible"/>
			</clipPath>
			<g clip-path="url(#SVGID_16_)" enable-background="new    ">
				<text transform="matrix(1 0 0 1 20.0002 24)" font-family="'ArialMT'" font-size="11">Add / Update Deadline</text>
			</g>
		</g>
	</g>
	<g transform="translate(639,2)" text-rendering="geometricPrecision">
		<g>
			<defs>
				<rect id="SVGID_17_" x="-7" y="-17" width="170" height="68"/>
			</defs>
			<clipPath id="SVGID_18_">
				<use xlink:href="#SVGID_17_"  overflow="visible"/>
			</clipPath>
			<path clip-path="url(#SVGID_18_)" fill="#EEF57A" d="M10,0h132c5.522,0,10,4.477,10,10v20c0,5.523-4.478,10-10,10H10
				C4.477,40,0,35.523,0,30V10C0,4.477,4.477,0,10,0z"/>
		</g>
	</g>
	<g transform="translate(639,2)" text-rendering="geometricPrecision">
		<g>
			<defs>
				<rect id="SVGID_19_" x="-7" y="-17" width="170" height="68"/>
			</defs>
			<clipPath id="SVGID_20_">
				<use xlink:href="#SVGID_19_"  overflow="visible"/>
			</clipPath>
			<path clip-path="url(#SVGID_20_)" fill="none" stroke="#000000" stroke-linejoin="round" stroke-miterlimit="1" d="M10,0h132
				c5.522,0,10,4.477,10,10v20c0,5.523-4.478,10-10,10H10C4.477,40,0,35.523,0,30V10C0,4.477,4.477,0,10,0z"/>
		</g>
	</g>
	<g transform="translate(639,2)" text-rendering="geometricPrecision">
		<g>
			<defs>
				<rect id="SVGID_21_" x="0" width="152" height="40"/>
			</defs>
			<clipPath id="SVGID_22_">
				<use xlink:href="#SVGID_21_"  overflow="visible"/>
			</clipPath>
			<g clip-path="url(#SVGID_22_)" enable-background="new    ">
				<text transform="matrix(1 0 0 1 22.0002 24)" font-family="'ArialMT'" font-size="11">Add / Update Student</text>
			</g>
		</g>
	</g>
	<g transform="translate(645,211)" text-rendering="geometricPrecision">
		<g>
			<defs>
				<rect id="SVGID_23_" x="-7" y="-17" width="170" height="68"/>
			</defs>
			<clipPath id="SVGID_24_">
				<use xlink:href="#SVGID_23_"  overflow="visible"/>
			</clipPath>
			<path clip-path="url(#SVGID_24_)" fill="#EEF57A" d="M10,0h132c5.522,0,10,4.477,10,10v20c0,5.523-4.478,10-10,10H10
				C4.477,40,0,35.523,0,30V10C0,4.477,4.477,0,10,0z"/>
		</g>
	</g>
	<g transform="translate(645,211)" text-rendering="geometricPrecision">
		<g>
			<defs>
				<rect id="SVGID_25_" x="-7" y="-17" width="170" height="68"/>
			</defs>
			<clipPath id="SVGID_26_">
				<use xlink:href="#SVGID_25_"  overflow="visible"/>
			</clipPath>
			<path clip-path="url(#SVGID_26_)" fill="none" stroke="#000000" stroke-linejoin="round" stroke-miterlimit="1" d="M10,0h132
				c5.522,0,10,4.477,10,10v20c0,5.523-4.478,10-10,10H10C4.477,40,0,35.523,0,30V10C0,4.477,4.477,0,10,0z"/>
		</g>
	</g>
	<g transform="translate(645,211)" text-rendering="geometricPrecision">
		<g>
			<defs>
				<rect id="SVGID_27_" x="0" width="152" height="40"/>
			</defs>
			<clipPath id="SVGID_28_">
				<use xlink:href="#SVGID_27_"  overflow="visible"/>
			</clipPath>
			<g clip-path="url(#SVGID_28_)" enable-background="new    ">
				<text transform="matrix(1 0 0 1 16.0002 24)" font-family="'ArialMT'" font-size="11">Generate Internal Marks</text>
			</g>
		</g>
	</g>
	<g transform="translate(892,171)" text-rendering="geometricPrecision">
		<g>
			<defs>
				<rect id="SVGID_29_" x="-7" y="-17" width="170" height="68"/>
			</defs>
			<clipPath id="SVGID_30_">
				<use xlink:href="#SVGID_29_"  overflow="visible"/>
			</clipPath>
			<path clip-path="url(#SVGID_30_)" fill="#EEF57A" d="M10,0h132c5.522,0,10,4.477,10,10v20c0,5.523-4.478,10-10,10H10
				C4.477,40,0,35.523,0,30V10C0,4.477,4.477,0,10,0z"/>
		</g>
	</g>
	<g transform="translate(892,171)" text-rendering="geometricPrecision">
		<g>
			<defs>
				<rect id="SVGID_31_" x="-7" y="-17" width="170" height="68"/>
			</defs>
			<clipPath id="SVGID_32_">
				<use xlink:href="#SVGID_31_"  overflow="visible"/>
			</clipPath>
			<path clip-path="url(#SVGID_32_)" fill="none" stroke="#000000" stroke-linejoin="round" stroke-miterlimit="1" d="M10,0h132
				c5.522,0,10,4.477,10,10v20c0,5.523-4.478,10-10,10H10C4.477,40,0,35.523,0,30V10C0,4.477,4.477,0,10,0z"/>
		</g>
	</g>
	<g transform="translate(892,171)" text-rendering="geometricPrecision">
		<g>
			<defs>
				<rect id="SVGID_33_" x="0" width="152" height="40"/>
			</defs>
			<clipPath id="SVGID_34_">
				<use xlink:href="#SVGID_33_"  overflow="visible"/>
			</clipPath>
			<g clip-path="url(#SVGID_34_)" enable-background="new    ">
				<text transform="matrix(1 0 0 1 50.0002 24)" font-family="'ArialMT'" font-size="11">Cycle Test</text>
			</g>
		</g>
	</g>
	<g transform="translate(892,106)" text-rendering="geometricPrecision">
		<g>
			<defs>
				<rect id="SVGID_35_" x="-7" y="-17" width="170" height="68"/>
			</defs>
			<clipPath id="SVGID_36_">
				<use xlink:href="#SVGID_35_"  overflow="visible"/>
			</clipPath>
			<path clip-path="url(#SVGID_36_)" fill="#EEF57A" d="M10,0h132c5.522,0,10,4.477,10,10v20c0,5.523-4.478,10-10,10H10
				C4.477,40,0,35.523,0,30V10C0,4.477,4.477,0,10,0z"/>
		</g>
	</g>
	<g transform="translate(892,106)" text-rendering="geometricPrecision">
		<g>
			<defs>
				<rect id="SVGID_37_" x="-7" y="-17" width="170" height="68"/>
			</defs>
			<clipPath id="SVGID_38_">
				<use xlink:href="#SVGID_37_"  overflow="visible"/>
			</clipPath>
			<path clip-path="url(#SVGID_38_)" fill="none" stroke="#000000" stroke-linejoin="round" stroke-miterlimit="1" d="M10,0h132
				c5.522,0,10,4.477,10,10v20c0,5.523-4.478,10-10,10H10C4.477,40,0,35.523,0,30V10C0,4.477,4.477,0,10,0z"/>
		</g>
	</g>
	<g transform="translate(892,106)" text-rendering="geometricPrecision">
		<g>
			<defs>
				<rect id="SVGID_39_" x="0" width="152" height="40"/>
			</defs>
			<clipPath id="SVGID_40_">
				<use xlink:href="#SVGID_39_"  overflow="visible"/>
			</clipPath>
			<g clip-path="url(#SVGID_40_)" enable-background="new    ">
				<text transform="matrix(1 0 0 1 48.0002 24)" font-family="'ArialMT'" font-size="11">Attendance</text>
			</g>
		</g>
	</g>
	<g transform="translate(892,41)" text-rendering="geometricPrecision">
		<g>
			<defs>
				<rect id="SVGID_41_" x="-7" y="-17" width="170" height="68"/>
			</defs>
			<clipPath id="SVGID_42_">
				<use xlink:href="#SVGID_41_"  overflow="visible"/>
			</clipPath>
			<path clip-path="url(#SVGID_42_)" fill="#EEF57A" d="M10,0h132c5.522,0,10,4.477,10,10v20c0,5.523-4.478,10-10,10H10
				C4.477,40,0,35.523,0,30V10C0,4.477,4.477,0,10,0z"/>
		</g>
	</g>
	<g transform="translate(892,41)" text-rendering="geometricPrecision">
		<g>
			<defs>
				<rect id="SVGID_43_" x="-7" y="-17" width="170" height="68"/>
			</defs>
			<clipPath id="SVGID_44_">
				<use xlink:href="#SVGID_43_"  overflow="visible"/>
			</clipPath>
			<path clip-path="url(#SVGID_44_)" fill="none" stroke="#000000" stroke-linejoin="round" stroke-miterlimit="1" d="M10,0h132
				c5.522,0,10,4.477,10,10v20c0,5.523-4.478,10-10,10H10C4.477,40,0,35.523,0,30V10C0,4.477,4.477,0,10,0z"/>
		</g>
	</g>
	<g transform="translate(892,41)" text-rendering="geometricPrecision">
		<g>
			<defs>
				<rect id="SVGID_45_" x="0" width="152" height="40"/>
			</defs>
			<clipPath id="SVGID_46_">
				<use xlink:href="#SVGID_45_"  overflow="visible"/>
			</clipPath>
			<g clip-path="url(#SVGID_46_)" enable-background="new    ">
				<text transform="matrix(1 0 0 1 29.0002 24)" font-family="'ArialMT'" font-size="11">Examination Marks</text>
			</g>
		</g>
	</g>
	<g transform="translate(162,161)" text-rendering="geometricPrecision">
		<g>
			<defs>
				<rect id="SVGID_47_" x="-7" y="-17" width="157" height="68"/>
			</defs>
			<clipPath id="SVGID_48_">
				<use xlink:href="#SVGID_47_"  overflow="visible"/>
			</clipPath>
			<path clip-path="url(#SVGID_48_)" fill="#EEF57A" d="M10,0h119c5.522,0,10,4.477,10,10v20c0,5.523-4.478,10-10,10H10
				C4.477,40,0,35.523,0,30V10C0,4.477,4.477,0,10,0z"/>
		</g>
	</g>
	<g transform="translate(162,161)" text-rendering="geometricPrecision">
		<g>
			<defs>
				<rect id="SVGID_49_" x="-7" y="-17" width="157" height="68"/>
			</defs>
			<clipPath id="SVGID_50_">
				<use xlink:href="#SVGID_49_"  overflow="visible"/>
			</clipPath>
			<path clip-path="url(#SVGID_50_)" fill="none" stroke="#000000" stroke-linejoin="round" stroke-miterlimit="1" d="M10,0h119
				c5.522,0,10,4.477,10,10v20c0,5.523-4.478,10-10,10H10C4.477,40,0,35.523,0,30V10C0,4.477,4.477,0,10,0z"/>
		</g>
	</g>
	<g transform="translate(162,161)" text-rendering="geometricPrecision">
		<g>
			<defs>
				<rect id="SVGID_51_" x="0" width="139" height="40"/>
			</defs>
			<clipPath id="SVGID_52_">
				<use xlink:href="#SVGID_51_"  overflow="visible"/>
			</clipPath>
			<g clip-path="url(#SVGID_52_)" enable-background="new    ">
				<text transform="matrix(1 0 0 1 34.9998 24)" font-family="'ArialMT'" font-size="11">Validate User</text>
			</g>
		</g>
	</g>
	<g transform="translate(645,316)" text-rendering="geometricPrecision">
		<g>
			<defs>
				<rect id="SVGID_53_" x="-7" y="-17" width="170" height="68"/>
			</defs>
			<clipPath id="SVGID_54_">
				<use xlink:href="#SVGID_53_"  overflow="visible"/>
			</clipPath>
			<path clip-path="url(#SVGID_54_)" fill="#EEF57A" d="M10,0h132c5.522,0,10,4.477,10,10v20c0,5.523-4.478,10-10,10H10
				C4.477,40,0,35.523,0,30V10C0,4.477,4.477,0,10,0z"/>
		</g>
	</g>
	<g transform="translate(645,316)" text-rendering="geometricPrecision">
		<g>
			<defs>
				<rect id="SVGID_55_" x="-7" y="-17" width="170" height="68"/>
			</defs>
			<clipPath id="SVGID_56_">
				<use xlink:href="#SVGID_55_"  overflow="visible"/>
			</clipPath>
			<path clip-path="url(#SVGID_56_)" fill="none" stroke="#000000" stroke-linejoin="round" stroke-miterlimit="1" d="M10,0h132
				c5.522,0,10,4.477,10,10v20c0,5.523-4.478,10-10,10H10C4.477,40,0,35.523,0,30V10C0,4.477,4.477,0,10,0z"/>
		</g>
	</g>
	<g transform="translate(645,316)" text-rendering="geometricPrecision">
		<g>
			<defs>
				<rect id="SVGID_57_" x="0" width="152" height="40"/>
			</defs>
			<clipPath id="SVGID_58_">
				<use xlink:href="#SVGID_57_"  overflow="visible"/>
			</clipPath>
			<g clip-path="url(#SVGID_58_)" enable-background="new    ">
				<text transform="matrix(1 0 0 1 59.0002 24)" font-family="'ArialMT'" font-size="11">Logout</text>
			</g>
		</g>
	</g>
	<g transform="translate(892,326)" text-rendering="geometricPrecision">
		<g>
			<defs>
				<rect id="SVGID_59_" x="-9" y="-9" width="42" height="42"/>
			</defs>
			<clipPath id="SVGID_60_">
				<use xlink:href="#SVGID_59_"  overflow="visible"/>
			</clipPath>
			<circle clip-path="url(#SVGID_60_)" fill="#F57A7A" cx="10" cy="10" r="10"/>
		</g>
	</g>
	<g transform="translate(892,326)" text-rendering="geometricPrecision">
		<g>
			<defs>
				<rect id="SVGID_61_" x="-9" y="-9" width="42" height="42"/>
			</defs>
			<clipPath id="SVGID_62_">
				<use xlink:href="#SVGID_61_"  overflow="visible"/>
			</clipPath>
			
				<circle clip-path="url(#SVGID_62_)" fill="none" stroke="#000000" stroke-width="3" stroke-linejoin="round" stroke-miterlimit="1" cx="10" cy="10" r="10"/>
		</g>
	</g>
	<g transform="translate(1107,2)" text-rendering="geometricPrecision">
		<g>
			<defs>
				<rect id="SVGID_63_" x="0" width="84" height="355"/>
			</defs>
			<clipPath id="SVGID_64_">
				<use xlink:href="#SVGID_63_"  overflow="visible"/>
			</clipPath>
			<path clip-path="url(#SVGID_64_)" fill="#F3E7F8" d="M8,0C3.581,0,0,3.582,0,8v338c0,4.418,3.581,8,8,8h67c4.418,0,8-3.582,8-8V8
				c0-4.418-3.582-8-8-8H8z"/>
		</g>
	</g>
	<g transform="translate(1107,2)" text-rendering="geometricPrecision">
		<g>
			<defs>
				<rect id="SVGID_65_" x="0" width="84" height="355"/>
			</defs>
			<clipPath id="SVGID_66_">
				<use xlink:href="#SVGID_65_"  overflow="visible"/>
			</clipPath>
			<path clip-path="url(#SVGID_66_)" fill="none" stroke="#CC93E1" stroke-linejoin="bevel" stroke-miterlimit="1" d="M8,0
				C3.581,0,0,3.582,0,8v338c0,4.418,3.581,8,8,8h67c4.418,0,8-3.582,8-8V8c0-4.418-3.582-8-8-8H8z"/>
		</g>
	</g>
	<g transform="translate(1107,2)" text-rendering="geometricPrecision">
		<g>
			<defs>
				<rect id="SVGID_67_" x="0" width="84" height="355"/>
			</defs>
			<clipPath id="SVGID_68_">
				<use xlink:href="#SVGID_67_"  overflow="visible"/>
			</clipPath>
			<g clip-path="url(#SVGID_68_)" enable-background="new    ">
				<text transform="matrix(1 0 0 1 18.0002 174)" font-family="'ArialMT'" font-size="11">Retrieve /</text>
			</g>
		</g>
		<g>
			<defs>
				<rect id="SVGID_69_" x="0" width="84" height="355"/>
			</defs>
			<clipPath id="SVGID_70_">
				<use xlink:href="#SVGID_69_"  overflow="visible"/>
			</clipPath>
			<g clip-path="url(#SVGID_70_)" enable-background="new    ">
				<text transform="matrix(1 0 0 1 12.0002 189)" font-family="'ArialMT'" font-size="11">Persist Data</text>
			</g>
		</g>
	</g>
	<g transform="translate(2,191)" text-rendering="geometricPrecision">
		<g>
			<defs>
				<rect id="SVGID_71_" x="-56" y="-15" width="168" height="45"/>
			</defs>
			<clipPath id="SVGID_72_">
				<use xlink:href="#SVGID_71_"  overflow="visible"/>
			</clipPath>
			<g clip-path="url(#SVGID_72_)" enable-background="new    ">
				<text transform="matrix(1 0 0 1 9.9998 12)" font-family="'ArialMT'" font-size="11">START</text>
			</g>
		</g>
	</g>
	<g transform="translate(880,349)" text-rendering="geometricPrecision">
		<g>
			<defs>
				<rect id="SVGID_73_" x="-44" y="-14" width="132" height="42"/>
			</defs>
			<clipPath id="SVGID_74_">
				<use xlink:href="#SVGID_73_"  overflow="visible"/>
			</clipPath>
			<g clip-path="url(#SVGID_74_)" enable-background="new    ">
				<text transform="matrix(1 0 0 1 12.0002 12)" font-family="'ArialMT'" font-size="11">END</text>
			</g>
		</g>
	</g>
	<g transform="translate(511,87)" text-rendering="geometricPrecision">
		<g>
			<defs>
				<rect id="SVGID_75_" x="0" width="177" height="132"/>
			</defs>
			<clipPath id="SVGID_76_">
				<use xlink:href="#SVGID_75_"  overflow="visible"/>
			</clipPath>
			<path clip-path="url(#SVGID_76_)" fill="none" stroke="#000000" stroke-linejoin="round" stroke-miterlimit="10" d="M40,89h23
				c0,0,7,0,7-7 M70,82V46c0,0,0-7,7-7 M77,39h56"/>
		</g>
		<g>
			<defs>
				<rect id="SVGID_77_" x="0" width="177" height="132"/>
			</defs>
			<clipPath id="SVGID_78_">
				<use xlink:href="#SVGID_77_"  overflow="visible"/>
			</clipPath>
			<polygon clip-path="url(#SVGID_78_)" points="133,39 124,35 124,43 			"/>
		</g>
		<g>
			<defs>
				<rect id="SVGID_79_" x="0" width="177" height="132"/>
			</defs>
			<clipPath id="SVGID_80_">
				<use xlink:href="#SVGID_79_"  overflow="visible"/>
			</clipPath>
			<polygon clip-path="url(#SVGID_80_)" fill="none" stroke="#000000" stroke-linejoin="round" stroke-miterlimit="10" points="
				133,39 124,35 124,43 			"/>
		</g>
	</g>
	<g transform="translate(440,-18)" text-rendering="geometricPrecision">
		<g>
			<defs>
				<rect id="SVGID_81_" x="0" width="243" height="223"/>
			</defs>
			<clipPath id="SVGID_82_">
				<use xlink:href="#SVGID_81_"  overflow="visible"/>
			</clipPath>
			<path clip-path="url(#SVGID_82_)" fill="none" stroke="#000000" stroke-linejoin="round" stroke-miterlimit="10" d="M40,179V47
				c0,0,0-7,7-7 M47,40h152"/>
		</g>
		<g>
			<defs>
				<rect id="SVGID_83_" x="0" width="243" height="223"/>
			</defs>
			<clipPath id="SVGID_84_">
				<use xlink:href="#SVGID_83_"  overflow="visible"/>
			</clipPath>
			<polygon clip-path="url(#SVGID_84_)" points="199,40 190,36 190,44 			"/>
		</g>
		<g>
			<defs>
				<rect id="SVGID_85_" x="0" width="243" height="223"/>
			</defs>
			<clipPath id="SVGID_86_">
				<use xlink:href="#SVGID_85_"  overflow="visible"/>
			</clipPath>
			<polygon clip-path="url(#SVGID_86_)" fill="none" stroke="#000000" stroke-linejoin="round" stroke-miterlimit="10" points="
				199,40 190,36 190,44 			"/>
		</g>
	</g>
	<g transform="translate(511,148)" text-rendering="geometricPrecision">
		<g>
			<defs>
				<rect id="SVGID_87_" x="0" width="178" height="128"/>
			</defs>
			<clipPath id="SVGID_88_">
				<use xlink:href="#SVGID_87_"  overflow="visible"/>
			</clipPath>
			<path clip-path="url(#SVGID_88_)" fill="none" stroke="#000000" stroke-linejoin="round" stroke-miterlimit="10" d="M40,40h23
				c0,0,7,0,7,7 M70,47v29c0,0,0,7,7,7 M77,83h57"/>
		</g>
		<g>
			<defs>
				<rect id="SVGID_89_" x="0" width="178" height="128"/>
			</defs>
			<clipPath id="SVGID_90_">
				<use xlink:href="#SVGID_89_"  overflow="visible"/>
			</clipPath>
			<polygon clip-path="url(#SVGID_90_)" points="134,83 125,79 125,87 			"/>
		</g>
		<g>
			<defs>
				<rect id="SVGID_91_" x="0" width="178" height="128"/>
			</defs>
			<clipPath id="SVGID_92_">
				<use xlink:href="#SVGID_91_"  overflow="visible"/>
			</clipPath>
			<polygon clip-path="url(#SVGID_92_)" fill="none" stroke="#000000" stroke-linejoin="round" stroke-miterlimit="10" points="
				134,83 125,79 125,87 			"/>
		</g>
	</g>
	<g transform="translate(681,106)" text-rendering="geometricPrecision">
		<g>
			<defs>
				<rect id="SVGID_93_" x="0" width="254" height="128"/>
			</defs>
			<clipPath id="SVGID_94_">
				<use xlink:href="#SVGID_93_"  overflow="visible"/>
			</clipPath>
			<path clip-path="url(#SVGID_94_)" fill="none" stroke="#000000" stroke-linejoin="round" stroke-miterlimit="10" d="M40,40v38
				c0,0,0,7,7,7 M47,85h164"/>
		</g>
		<g>
			<defs>
				<rect id="SVGID_95_" x="0" width="254" height="128"/>
			</defs>
			<clipPath id="SVGID_96_">
				<use xlink:href="#SVGID_95_"  overflow="visible"/>
			</clipPath>
			<polygon clip-path="url(#SVGID_96_)" points="211,85 202,81 202,89 			"/>
		</g>
		<g>
			<defs>
				<rect id="SVGID_97_" x="0" width="254" height="128"/>
			</defs>
			<clipPath id="SVGID_98_">
				<use xlink:href="#SVGID_97_"  overflow="visible"/>
			</clipPath>
			<polygon clip-path="url(#SVGID_98_)" fill="none" stroke="#000000" stroke-linejoin="round" stroke-miterlimit="10" points="
				211,85 202,81 202,89 			"/>
		</g>
	</g>
	<g transform="translate(757,86)" text-rendering="geometricPrecision">
		<g>
			<defs>
				<rect id="SVGID_99_" x="0" width="177" height="84"/>
			</defs>
			<clipPath id="SVGID_100_">
				<use xlink:href="#SVGID_99_"  overflow="visible"/>
			</clipPath>
			
				<line clip-path="url(#SVGID_100_)" fill="none" stroke="#000000" stroke-linejoin="round" stroke-miterlimit="10" x1="40" y1="40" x2="133" y2="40"/>
		</g>
		<g>
			<defs>
				<rect id="SVGID_101_" x="0" width="177" height="84"/>
			</defs>
			<clipPath id="SVGID_102_">
				<use xlink:href="#SVGID_101_"  overflow="visible"/>
			</clipPath>
			<polygon clip-path="url(#SVGID_102_)" points="133,40 124,36 124,44 			"/>
		</g>
		<g>
			<defs>
				<rect id="SVGID_103_" x="0" width="177" height="84"/>
			</defs>
			<clipPath id="SVGID_104_">
				<use xlink:href="#SVGID_103_"  overflow="visible"/>
			</clipPath>
			<polygon clip-path="url(#SVGID_104_)" fill="none" stroke="#000000" stroke-linejoin="round" stroke-miterlimit="10" points="
				133,40 124,36 124,44 			"/>
		</g>
	</g>
	<g transform="translate(681,21)" text-rendering="geometricPrecision">
		<g>
			<defs>
				<rect id="SVGID_105_" x="0" width="254" height="128"/>
			</defs>
			<clipPath id="SVGID_106_">
				<use xlink:href="#SVGID_105_"  overflow="visible"/>
			</clipPath>
			<path clip-path="url(#SVGID_106_)" fill="none" stroke="#000000" stroke-linejoin="round" stroke-miterlimit="10" d="M40,84V47
				c0,0,0-7,7-7 M47,40h164"/>
		</g>
		<g>
			<defs>
				<rect id="SVGID_107_" x="0" width="254" height="128"/>
			</defs>
			<clipPath id="SVGID_108_">
				<use xlink:href="#SVGID_107_"  overflow="visible"/>
			</clipPath>
			<polygon clip-path="url(#SVGID_108_)" points="211,40 202,36 202,44 			"/>
		</g>
		<g>
			<defs>
				<rect id="SVGID_109_" x="0" width="254" height="128"/>
			</defs>
			<clipPath id="SVGID_110_">
				<use xlink:href="#SVGID_109_"  overflow="visible"/>
			</clipPath>
			<polygon clip-path="url(#SVGID_110_)" fill="none" stroke="#000000" stroke-linejoin="round" stroke-miterlimit="10" points="
				211,40 202,36 202,44 			"/>
		</g>
	</g>
	<g transform="translate(1,140)" text-rendering="geometricPrecision">
		<g>
			<defs>
				<path id="SVGID_111_" d="M57,51v15H1V51H57z M0,0v84h204V0H0z"/>
			</defs>
			<clipPath id="SVGID_112_">
				<use xlink:href="#SVGID_111_"  overflow="visible"/>
			</clipPath>
			
				<line clip-path="url(#SVGID_112_)" fill="none" stroke="#000000" stroke-linejoin="round" stroke-miterlimit="10" x1="40" y1="41" x2="160" y2="41"/>
		</g>
		<g>
			<defs>
				<path id="SVGID_113_" d="M57,51v15H1V51H57z M0,0v84h204V0H0z"/>
			</defs>
			<clipPath id="SVGID_114_">
				<use xlink:href="#SVGID_113_"  overflow="visible"/>
			</clipPath>
			<polygon clip-path="url(#SVGID_114_)" points="160,41 151,37 151,45 			"/>
		</g>
		<g>
			<defs>
				<path id="SVGID_115_" d="M57,51v15H1V51H57z M0,0v84h204V0H0z"/>
			</defs>
			<clipPath id="SVGID_116_">
				<use xlink:href="#SVGID_115_"  overflow="visible"/>
			</clipPath>
			<polygon clip-path="url(#SVGID_116_)" fill="none" stroke="#000000" stroke-linejoin="round" stroke-miterlimit="10" points="
				160,41 151,37 151,45 			"/>
		</g>
	</g>
	<g transform="translate(262,140)" text-rendering="geometricPrecision">
		<g>
			<defs>
				<rect id="SVGID_117_" x="0" width="192" height="84"/>
			</defs>
			<clipPath id="SVGID_118_">
				<use xlink:href="#SVGID_117_"  overflow="visible"/>
			</clipPath>
			
				<line clip-path="url(#SVGID_118_)" fill="none" stroke="#000000" stroke-linejoin="round" stroke-miterlimit="10" x1="40" y1="41" x2="149" y2="41"/>
		</g>
		<g>
			<defs>
				<rect id="SVGID_119_" x="0" width="192" height="84"/>
			</defs>
			<clipPath id="SVGID_120_">
				<use xlink:href="#SVGID_119_"  overflow="visible"/>
			</clipPath>
			<polygon clip-path="url(#SVGID_120_)" points="149,41 140,37 140,45 			"/>
		</g>
		<g>
			<defs>
				<rect id="SVGID_121_" x="0" width="192" height="84"/>
			</defs>
			<clipPath id="SVGID_122_">
				<use xlink:href="#SVGID_121_"  overflow="visible"/>
			</clipPath>
			<polygon clip-path="url(#SVGID_122_)" fill="none" stroke="#000000" stroke-linejoin="round" stroke-miterlimit="10" points="
				149,41 140,37 140,45 			"/>
		</g>
	</g>
	<g transform="translate(440,162)" text-rendering="geometricPrecision">
		<g>
			<defs>
				<rect id="SVGID_123_" x="0" width="248" height="218"/>
			</defs>
			<clipPath id="SVGID_124_">
				<use xlink:href="#SVGID_123_"  overflow="visible"/>
			</clipPath>
			<path clip-path="url(#SVGID_124_)" fill="none" stroke="#000000" stroke-linejoin="round" stroke-miterlimit="10" d="M40,40v127
				c0,0,0,7,7,7 M47,174h157"/>
		</g>
		<g>
			<defs>
				<rect id="SVGID_125_" x="0" width="248" height="218"/>
			</defs>
			<clipPath id="SVGID_126_">
				<use xlink:href="#SVGID_125_"  overflow="visible"/>
			</clipPath>
			<polygon clip-path="url(#SVGID_126_)" points="204,174 195,170 195,178 			"/>
		</g>
		<g>
			<defs>
				<rect id="SVGID_127_" x="0" width="248" height="218"/>
			</defs>
			<clipPath id="SVGID_128_">
				<use xlink:href="#SVGID_127_"  overflow="visible"/>
			</clipPath>
			<polygon clip-path="url(#SVGID_128_)" fill="none" stroke="#000000" stroke-linejoin="round" stroke-miterlimit="10" points="
				204,174 195,170 195,178 			"/>
		</g>
	</g>
	<g transform="translate(756,296)" text-rendering="geometricPrecision">
		<g>
			<defs>
				<path id="SVGID_129_" d="M168,53v14h-44V53H168z M0,0v84h179V0H0z"/>
			</defs>
			<clipPath id="SVGID_130_">
				<use xlink:href="#SVGID_129_"  overflow="visible"/>
			</clipPath>
			
				<line clip-path="url(#SVGID_130_)" fill="none" stroke="#000000" stroke-linejoin="round" stroke-miterlimit="10" x1="40" y1="40" x2="135" y2="40"/>
		</g>
		<g>
			<defs>
				<path id="SVGID_131_" d="M168,53v14h-44V53H168z M0,0v84h179V0H0z"/>
			</defs>
			<clipPath id="SVGID_132_">
				<use xlink:href="#SVGID_131_"  overflow="visible"/>
			</clipPath>
			<polygon clip-path="url(#SVGID_132_)" points="135,40 126,36 126,44 			"/>
		</g>
		<g>
			<defs>
				<path id="SVGID_133_" d="M168,53v14h-44V53H168z M0,0v84h179V0H0z"/>
			</defs>
			<clipPath id="SVGID_134_">
				<use xlink:href="#SVGID_133_"  overflow="visible"/>
			</clipPath>
			<polygon clip-path="url(#SVGID_134_)" fill="none" stroke="#000000" stroke-linejoin="round" stroke-miterlimit="10" points="
				135,40 126,36 126,44 			"/>
		</g>
	</g>
	<g transform="translate(747,-24)" text-rendering="geometricPrecision">
		<g>
			<defs>
				<rect id="SVGID_135_" x="0" width="406" height="92"/>
			</defs>
			<clipPath id="SVGID_136_">
				<use xlink:href="#SVGID_135_"  overflow="visible"/>
			</clipPath>
			
				<line clip-path="url(#SVGID_136_)" fill="none" stroke="#000000" stroke-linejoin="round" stroke-miterlimit="1" x1="45" y1="44" x2="359" y2="44"/>
		</g>
	</g>
	<g transform="translate(1001,16)" text-rendering="geometricPrecision">
		<g>
			<defs>
				<rect id="SVGID_137_" x="0" width="153" height="92"/>
			</defs>
			<clipPath id="SVGID_138_">
				<use xlink:href="#SVGID_137_"  overflow="visible"/>
			</clipPath>
			
				<line clip-path="url(#SVGID_138_)" fill="none" stroke="#000000" stroke-linejoin="round" stroke-miterlimit="1" x1="44" y1="44" x2="105" y2="44"/>
		</g>
	</g>
	<g transform="translate(1001,81)" text-rendering="geometricPrecision">
		<g>
			<defs>
				<rect id="SVGID_139_" x="0" width="153" height="92"/>
			</defs>
			<clipPath id="SVGID_140_">
				<use xlink:href="#SVGID_139_"  overflow="visible"/>
			</clipPath>
			
				<line clip-path="url(#SVGID_140_)" fill="none" stroke="#000000" stroke-linejoin="round" stroke-miterlimit="1" x1="44" y1="44" x2="105" y2="44"/>
		</g>
	</g>
	<g transform="translate(1001,146)" text-rendering="geometricPrecision">
		<g>
			<defs>
				<rect id="SVGID_141_" x="0" width="153" height="92"/>
			</defs>
			<clipPath id="SVGID_142_">
				<use xlink:href="#SVGID_141_"  overflow="visible"/>
			</clipPath>
			
				<line clip-path="url(#SVGID_142_)" fill="none" stroke="#000000" stroke-linejoin="round" stroke-miterlimit="1" x1="44" y1="44" x2="105" y2="44"/>
		</g>
	</g>
	<g transform="translate(752,187)" text-rendering="geometricPrecision">
		<g>
			<defs>
				<rect id="SVGID_143_" x="0" width="402" height="92"/>
			</defs>
			<clipPath id="SVGID_144_">
				<use xlink:href="#SVGID_143_"  overflow="visible"/>
			</clipPath>
			
				<line clip-path="url(#SVGID_144_)" fill="none" stroke="#000000" stroke-linejoin="round" stroke-miterlimit="1" x1="44" y1="44" x2="354" y2="44"/>
		</g>
	</g>
	<g transform="translate(677,245)" text-rendering="geometricPrecision">
		<g>
			<defs>
				<polygon id="SVGID_145_" points="0,0 0,117 203,117 203,104 247,104 247,117 477,117 477,0 				"/>
			</defs>
			<clipPath id="SVGID_146_">
				<use xlink:href="#SVGID_145_"  overflow="visible"/>
			</clipPath>
			<path clip-path="url(#SVGID_146_)" fill="none" stroke="#000000" stroke-linejoin="round" stroke-miterlimit="1" d="M44,69V52
				c0,0,0-7,7-7 M51,45h378"/>
		</g>
	</g>
</g>
</svg>
