<?xml version="1.0" encoding="utf-8"?>
<!-- Generator: Adobe Illustrator 16.0.0, SVG Export Plug-In . SVG Version: 6.00 Build 0)  -->
<!DOCTYPE svg PUBLIC "-//W3C//DTD SVG 1.1//EN" "http://www.w3.org/Graphics/SVG/1.1/DTD/svg11.dtd">
<svg version="1.1"
	 id="Layer_1" image-rendering="auto" shape-rendering="auto" text-rendering="auto" color-rendering="auto" color-interpolation="auto"
	 xmlns="http://www.w3.org/2000/svg" xmlns:xlink="http://www.w3.org/1999/xlink" x="0px" y="0px" width="1415px" height="517px"
	 viewBox="0 0 1415 517" enable-background="new 0 0 1415 517" xml:space="preserve">
<g>
	<g text-rendering="geometricPrecision">
		<rect x="0" y="0" fill="#FFFFFF" width="1415" height="517"/>
	</g>
	<g transform="translate(769,141)" text-rendering="geometricPrecision">
		<g>
			<defs>
				<rect id="SVGID_1_" x="-7" y="-17" width="146" height="68"/>
			</defs>
			<clipPath id="SVGID_2_">
				<use xlink:href="#SVGID_1_"  overflow="visible"/>
			</clipPath>
			<path clip-path="url(#SVGID_2_)" fill="#EEF57A" d="M10,0h108c5.522,0,10,4.478,10,10v20c0,5.523-4.478,10-10,10H10
				C4.477,40,0,35.523,0,30V10C0,4.477,4.477,0,10,0z"/>
		</g>
	</g>
	<g transform="translate(769,141)" text-rendering="geometricPrecision">
		<g>
			<defs>
				<rect id="SVGID_3_" x="-7" y="-17" width="146" height="68"/>
			</defs>
			<clipPath id="SVGID_4_">
				<use xlink:href="#SVGID_3_"  overflow="visible"/>
			</clipPath>
			<path clip-path="url(#SVGID_4_)" fill="none" stroke="#000000" stroke-linejoin="round" stroke-miterlimit="1" d="M10,0h108
				c5.522,0,10,4.478,10,10v20c0,5.523-4.478,10-10,10H10C4.477,40,0,35.523,0,30V10C0,4.477,4.477,0,10,0z"/>
		</g>
	</g>
	<g transform="translate(769,141)" text-rendering="geometricPrecision">
		<g>
			<defs>
				<rect id="SVGID_5_" x="0" y="0" width="128" height="40"/>
			</defs>
			<clipPath id="SVGID_6_">
				<use xlink:href="#SVGID_5_"  overflow="visible"/>
			</clipPath>
			<g clip-path="url(#SVGID_6_)" enable-background="new    ">
				<text transform="matrix(1 0 0 1 29.0002 23.9998)" font-family="'ArialMT'" font-size="11">Update Marks</text>
			</g>
		</g>
	</g>
	<g transform="translate(996,248)" text-rendering="geometricPrecision">
		<g>
			<defs>
				<rect id="SVGID_7_" x="-7" y="-17" width="146" height="68"/>
			</defs>
			<clipPath id="SVGID_8_">
				<use xlink:href="#SVGID_7_"  overflow="visible"/>
			</clipPath>
			<path clip-path="url(#SVGID_8_)" fill="#EEF57A" d="M10,0h108c5.522,0,10,4.478,10,10v20c0,5.523-4.478,10-10,10H10
				C4.477,40,0,35.523,0,30V10C0,4.477,4.477,0,10,0z"/>
		</g>
	</g>
	<g transform="translate(996,248)" text-rendering="geometricPrecision">
		<g>
			<defs>
				<rect id="SVGID_9_" x="-7" y="-17" width="146" height="68"/>
			</defs>
			<clipPath id="SVGID_10_">
				<use xlink:href="#SVGID_9_"  overflow="visible"/>
			</clipPath>
			<path clip-path="url(#SVGID_10_)" fill="none" stroke="#000000" stroke-linejoin="round" stroke-miterlimit="1" d="M10,0h108
				c5.522,0,10,4.478,10,10v20c0,5.523-4.478,10-10,10H10C4.477,40,0,35.523,0,30V10C0,4.477,4.477,0,10,0z"/>
		</g>
	</g>
	<g transform="translate(996,248)" text-rendering="geometricPrecision">
		<g>
			<defs>
				<rect id="SVGID_11_" x="0" y="0" width="128" height="40"/>
			</defs>
			<clipPath id="SVGID_12_">
				<use xlink:href="#SVGID_11_"  overflow="visible"/>
			</clipPath>
			<g clip-path="url(#SVGID_12_)" enable-background="new    ">
				<text transform="matrix(1 0 0 1 27.0002 23.9998)" font-family="'ArialMT'" font-size="11">Average Marks</text>
			</g>
		</g>
	</g>
	<g transform="translate(996,181)" text-rendering="geometricPrecision">
		<g>
			<defs>
				<rect id="SVGID_13_" x="-7" y="-17" width="146" height="68"/>
			</defs>
			<clipPath id="SVGID_14_">
				<use xlink:href="#SVGID_13_"  overflow="visible"/>
			</clipPath>
			<path clip-path="url(#SVGID_14_)" fill="#EEF57A" d="M10,0h108c5.522,0,10,4.478,10,10v20c0,5.523-4.478,10-10,10H10
				C4.477,40,0,35.523,0,30V10C0,4.477,4.477,0,10,0z"/>
		</g>
	</g>
	<g transform="translate(996,181)" text-rendering="geometricPrecision">
		<g>
			<defs>
				<rect id="SVGID_15_" x="-7" y="-17" width="146" height="68"/>
			</defs>
			<clipPath id="SVGID_16_">
				<use xlink:href="#SVGID_15_"  overflow="visible"/>
			</clipPath>
			<path clip-path="url(#SVGID_16_)" fill="none" stroke="#000000" stroke-linejoin="round" stroke-miterlimit="1" d="M10,0h108
				c5.522,0,10,4.478,10,10v20c0,5.523-4.478,10-10,10H10C4.477,40,0,35.523,0,30V10C0,4.477,4.477,0,10,0z"/>
		</g>
	</g>
	<g transform="translate(996,181)" text-rendering="geometricPrecision">
		<g>
			<defs>
				<rect id="SVGID_17_" x="0" y="0" width="128" height="40"/>
			</defs>
			<clipPath id="SVGID_18_">
				<use xlink:href="#SVGID_17_"  overflow="visible"/>
			</clipPath>
			<g clip-path="url(#SVGID_18_)" enable-background="new    ">
				<text transform="matrix(1 0 0 1 32.0002 23.9998)" font-family="'ArialMT'" font-size="11">Assignments</text>
			</g>
		</g>
	</g>
	<g transform="translate(996,101)" text-rendering="geometricPrecision">
		<g>
			<defs>
				<rect id="SVGID_19_" x="-7" y="-17" width="146" height="68"/>
			</defs>
			<clipPath id="SVGID_20_">
				<use xlink:href="#SVGID_19_"  overflow="visible"/>
			</clipPath>
			<path clip-path="url(#SVGID_20_)" fill="#EEF57A" d="M10,0h108c5.522,0,10,4.478,10,10v20c0,5.523-4.478,10-10,10H10
				C4.477,40,0,35.523,0,30V10C0,4.477,4.477,0,10,0z"/>
		</g>
	</g>
	<g transform="translate(996,101)" text-rendering="geometricPrecision">
		<g>
			<defs>
				<rect id="SVGID_21_" x="-7" y="-17" width="146" height="68"/>
			</defs>
			<clipPath id="SVGID_22_">
				<use xlink:href="#SVGID_21_"  overflow="visible"/>
			</clipPath>
			<path clip-path="url(#SVGID_22_)" fill="none" stroke="#000000" stroke-linejoin="round" stroke-miterlimit="1" d="M10,0h108
				c5.522,0,10,4.478,10,10v20c0,5.523-4.478,10-10,10H10C4.477,40,0,35.523,0,30V10C0,4.477,4.477,0,10,0z"/>
		</g>
	</g>
	<g transform="translate(996,101)" text-rendering="geometricPrecision">
		<g>
			<defs>
				<rect id="SVGID_23_" x="0" y="0" width="128" height="40"/>
			</defs>
			<clipPath id="SVGID_24_">
				<use xlink:href="#SVGID_23_"  overflow="visible"/>
			</clipPath>
			<g clip-path="url(#SVGID_24_)" enable-background="new    ">
				<text transform="matrix(1 0 0 1 36.0002 23.9998)" font-family="'ArialMT'" font-size="11">Attendance</text>
			</g>
		</g>
	</g>
	<g transform="translate(996,34)" text-rendering="geometricPrecision">
		<g>
			<defs>
				<rect id="SVGID_25_" x="-7" y="-17" width="146" height="68"/>
			</defs>
			<clipPath id="SVGID_26_">
				<use xlink:href="#SVGID_25_"  overflow="visible"/>
			</clipPath>
			<path clip-path="url(#SVGID_26_)" fill="#EEF57A" d="M10,0h108c5.522,0,10,4.478,10,10v20c0,5.523-4.478,10-10,10H10
				C4.477,40,0,35.523,0,30V10C0,4.477,4.477,0,10,0z"/>
		</g>
	</g>
	<g transform="translate(996,34)" text-rendering="geometricPrecision">
		<g>
			<defs>
				<rect id="SVGID_27_" x="-7" y="-17" width="146" height="68"/>
			</defs>
			<clipPath id="SVGID_28_">
				<use xlink:href="#SVGID_27_"  overflow="visible"/>
			</clipPath>
			<path clip-path="url(#SVGID_28_)" fill="none" stroke="#000000" stroke-linejoin="round" stroke-miterlimit="1" d="M10,0h108
				c5.522,0,10,4.478,10,10v20c0,5.523-4.478,10-10,10H10C4.477,40,0,35.523,0,30V10C0,4.477,4.477,0,10,0z"/>
		</g>
	</g>
	<g transform="translate(996,34)" text-rendering="geometricPrecision">
		<g>
			<defs>
				<rect id="SVGID_29_" x="0" y="0" width="128" height="40"/>
			</defs>
			<clipPath id="SVGID_30_">
				<use xlink:href="#SVGID_29_"  overflow="visible"/>
			</clipPath>
			<g clip-path="url(#SVGID_30_)" enable-background="new    ">
				<text transform="matrix(1 0 0 1 32.0002 23.9998)" font-family="'ArialMT'" font-size="11">Exam Marks</text>
			</g>
		</g>
	</g>
	<g transform="translate(641,2)" text-rendering="geometricPrecision">
		<g>
			<defs>
				<rect id="SVGID_31_" x="-7" y="-17" width="146" height="68"/>
			</defs>
			<clipPath id="SVGID_32_">
				<use xlink:href="#SVGID_31_"  overflow="visible"/>
			</clipPath>
			<path clip-path="url(#SVGID_32_)" fill="#EEF57A" d="M10,0h108c5.522,0,10,4.478,10,10v20c0,5.523-4.478,10-10,10H10
				C4.477,40,0,35.523,0,30V10C0,4.477,4.477,0,10,0z"/>
		</g>
	</g>
	<g transform="translate(641,2)" text-rendering="geometricPrecision">
		<g>
			<defs>
				<rect id="SVGID_33_" x="-7" y="-17" width="146" height="68"/>
			</defs>
			<clipPath id="SVGID_34_">
				<use xlink:href="#SVGID_33_"  overflow="visible"/>
			</clipPath>
			<path clip-path="url(#SVGID_34_)" fill="none" stroke="#000000" stroke-linejoin="round" stroke-miterlimit="1" d="M10,0h108
				c5.522,0,10,4.478,10,10v20c0,5.523-4.478,10-10,10H10C4.477,40,0,35.523,0,30V10C0,4.477,4.477,0,10,0z"/>
		</g>
	</g>
	<g transform="translate(641,2)" text-rendering="geometricPrecision">
		<g>
			<defs>
				<rect id="SVGID_35_" x="0" y="0" width="128" height="40"/>
			</defs>
			<clipPath id="SVGID_36_">
				<use xlink:href="#SVGID_35_"  overflow="visible"/>
			</clipPath>
			<g clip-path="url(#SVGID_36_)" enable-background="new    ">
				<text transform="matrix(1 0 0 1 42.9998 23.9998)" font-family="'ArialMT'" font-size="11">Analysis</text>
			</g>
		</g>
	</g>
	<g transform="translate(996,393)" text-rendering="geometricPrecision">
		<g>
			<defs>
				<rect id="SVGID_37_" x="-7" y="-17" width="146" height="68"/>
			</defs>
			<clipPath id="SVGID_38_">
				<use xlink:href="#SVGID_37_"  overflow="visible"/>
			</clipPath>
			<path clip-path="url(#SVGID_38_)" fill="#EEF57A" d="M10,0h108c5.522,0,10,4.478,10,10v20c0,5.523-4.478,10-10,10H10
				C4.477,40,0,35.523,0,30V10C0,4.477,4.477,0,10,0z"/>
		</g>
	</g>
	<g transform="translate(996,393)" text-rendering="geometricPrecision">
		<g>
			<defs>
				<rect id="SVGID_39_" x="-7" y="-17" width="146" height="68"/>
			</defs>
			<clipPath id="SVGID_40_">
				<use xlink:href="#SVGID_39_"  overflow="visible"/>
			</clipPath>
			<path clip-path="url(#SVGID_40_)" fill="none" stroke="#000000" stroke-linejoin="round" stroke-miterlimit="1" d="M10,0h108
				c5.522,0,10,4.478,10,10v20c0,5.523-4.478,10-10,10H10C4.477,40,0,35.523,0,30V10C0,4.477,4.477,0,10,0z"/>
		</g>
	</g>
	<g transform="translate(996,393)" text-rendering="geometricPrecision">
		<g>
			<defs>
				<rect id="SVGID_41_" x="0" y="0" width="128" height="40"/>
			</defs>
			<clipPath id="SVGID_42_">
				<use xlink:href="#SVGID_41_"  overflow="visible"/>
			</clipPath>
			<g clip-path="url(#SVGID_42_)" enable-background="new    ">
				<text transform="matrix(1 0 0 1 45.0002 23.9998)" font-family="'ArialMT'" font-size="11">Parents</text>
			</g>
		</g>
	</g>
	<g transform="translate(996,315)" text-rendering="geometricPrecision">
		<g>
			<defs>
				<rect id="SVGID_43_" x="-7" y="-17" width="146" height="68"/>
			</defs>
			<clipPath id="SVGID_44_">
				<use xlink:href="#SVGID_43_"  overflow="visible"/>
			</clipPath>
			<path clip-path="url(#SVGID_44_)" fill="#EEF57A" d="M10,0h108c5.522,0,10,4.478,10,10v20c0,5.523-4.478,10-10,10H10
				C4.477,40,0,35.523,0,30V10C0,4.477,4.477,0,10,0z"/>
		</g>
	</g>
	<g transform="translate(996,315)" text-rendering="geometricPrecision">
		<g>
			<defs>
				<rect id="SVGID_45_" x="-7" y="-17" width="146" height="68"/>
			</defs>
			<clipPath id="SVGID_46_">
				<use xlink:href="#SVGID_45_"  overflow="visible"/>
			</clipPath>
			<path clip-path="url(#SVGID_46_)" fill="none" stroke="#000000" stroke-linejoin="round" stroke-miterlimit="1" d="M10,0h108
				c5.522,0,10,4.478,10,10v20c0,5.523-4.478,10-10,10H10C4.477,40,0,35.523,0,30V10C0,4.477,4.477,0,10,0z"/>
		</g>
	</g>
	<g transform="translate(996,315)" text-rendering="geometricPrecision">
		<g>
			<defs>
				<rect id="SVGID_47_" x="0" y="0" width="128" height="40"/>
			</defs>
			<clipPath id="SVGID_48_">
				<use xlink:href="#SVGID_47_"  overflow="visible"/>
			</clipPath>
			<g clip-path="url(#SVGID_48_)" enable-background="new    ">
				<text transform="matrix(1 0 0 1 41.0002 23.9998)" font-family="'ArialMT'" font-size="11">Students</text>
			</g>
		</g>
	</g>
	<g transform="translate(769,353)" text-rendering="geometricPrecision">
		<g>
			<defs>
				<rect id="SVGID_49_" x="-7" y="-17" width="146" height="68"/>
			</defs>
			<clipPath id="SVGID_50_">
				<use xlink:href="#SVGID_49_"  overflow="visible"/>
			</clipPath>
			<path clip-path="url(#SVGID_50_)" fill="#EEF57A" d="M10,0h108c5.522,0,10,4.478,10,10v20c0,5.523-4.478,10-10,10H10
				C4.477,40,0,35.523,0,30V10C0,4.477,4.477,0,10,0z"/>
		</g>
	</g>
	<g transform="translate(769,353)" text-rendering="geometricPrecision">
		<g>
			<defs>
				<rect id="SVGID_51_" x="-7" y="-17" width="146" height="68"/>
			</defs>
			<clipPath id="SVGID_52_">
				<use xlink:href="#SVGID_51_"  overflow="visible"/>
			</clipPath>
			<path clip-path="url(#SVGID_52_)" fill="none" stroke="#000000" stroke-linejoin="round" stroke-miterlimit="1" d="M10,0h108
				c5.522,0,10,4.478,10,10v20c0,5.523-4.478,10-10,10H10C4.477,40,0,35.523,0,30V10C0,4.477,4.477,0,10,0z"/>
		</g>
	</g>
	<g transform="translate(769,353)" text-rendering="geometricPrecision">
		<g>
			<defs>
				<rect id="SVGID_53_" x="0" y="0" width="128" height="40"/>
			</defs>
			<clipPath id="SVGID_54_">
				<use xlink:href="#SVGID_53_"  overflow="visible"/>
			</clipPath>
			<g clip-path="url(#SVGID_54_)" enable-background="new    ">
				<text transform="matrix(1 0 0 1 22.0002 23.9998)" font-family="'ArialMT'" font-size="11">Pass Information</text>
			</g>
		</g>
	</g>
	<g transform="translate(425,229)" text-rendering="geometricPrecision">
		<g>
			<defs>
				<rect id="SVGID_55_" x="-7" y="-17" width="146" height="68"/>
			</defs>
			<clipPath id="SVGID_56_">
				<use xlink:href="#SVGID_55_"  overflow="visible"/>
			</clipPath>
			<path clip-path="url(#SVGID_56_)" fill="#EEF57A" d="M10,0h108c5.522,0,10,4.478,10,10v20c0,5.523-4.478,10-10,10H10
				C4.477,40,0,35.523,0,30V10C0,4.477,4.477,0,10,0z"/>
		</g>
	</g>
	<g transform="translate(425,229)" text-rendering="geometricPrecision">
		<g>
			<defs>
				<rect id="SVGID_57_" x="-7" y="-17" width="146" height="68"/>
			</defs>
			<clipPath id="SVGID_58_">
				<use xlink:href="#SVGID_57_"  overflow="visible"/>
			</clipPath>
			<path clip-path="url(#SVGID_58_)" fill="none" stroke="#000000" stroke-linejoin="round" stroke-miterlimit="1" d="M10,0h108
				c5.522,0,10,4.478,10,10v20c0,5.523-4.478,10-10,10H10C4.477,40,0,35.523,0,30V10C0,4.477,4.477,0,10,0z"/>
		</g>
	</g>
	<g transform="translate(425,229)" text-rendering="geometricPrecision">
		<g>
			<defs>
				<rect id="SVGID_59_" x="0" y="0" width="128" height="40"/>
			</defs>
			<clipPath id="SVGID_60_">
				<use xlink:href="#SVGID_59_"  overflow="visible"/>
			</clipPath>
			<g clip-path="url(#SVGID_60_)" enable-background="new    ">
				<text transform="matrix(1 0 0 1 29.9998 23.9998)" font-family="'ArialMT'" font-size="11">Select Option</text>
			</g>
		</g>
	</g>
	<g transform="translate(21,239)" text-rendering="geometricPrecision">
		<g>
			<defs>
				<rect id="SVGID_61_" x="-7" y="-7" width="38" height="38"/>
			</defs>
			<clipPath id="SVGID_62_">
				<use xlink:href="#SVGID_61_"  overflow="visible"/>
			</clipPath>
			<circle clip-path="url(#SVGID_62_)" fill="#C3F57A" cx="10" cy="10" r="10"/>
		</g>
	</g>
	<g transform="translate(21,239)" text-rendering="geometricPrecision">
		<g>
			<defs>
				<rect id="SVGID_63_" x="-7" y="-7" width="38" height="38"/>
			</defs>
			<clipPath id="SVGID_64_">
				<use xlink:href="#SVGID_63_"  overflow="visible"/>
			</clipPath>
			
				<circle clip-path="url(#SVGID_64_)" fill="none" stroke="#000000" stroke-linejoin="round" stroke-miterlimit="1" cx="10" cy="10" r="10"/>
		</g>
	</g>
	<g transform="translate(153,229)" text-rendering="geometricPrecision">
		<g>
			<defs>
				<rect id="SVGID_65_" x="-7" y="-17" width="146" height="68"/>
			</defs>
			<clipPath id="SVGID_66_">
				<use xlink:href="#SVGID_65_"  overflow="visible"/>
			</clipPath>
			<path clip-path="url(#SVGID_66_)" fill="#EEF57A" d="M10,0h108c5.522,0,10,4.478,10,10v20c0,5.523-4.478,10-10,10H10
				C4.477,40,0,35.523,0,30V10C0,4.477,4.477,0,10,0z"/>
		</g>
	</g>
	<g transform="translate(153,229)" text-rendering="geometricPrecision">
		<g>
			<defs>
				<rect id="SVGID_67_" x="-7" y="-17" width="146" height="68"/>
			</defs>
			<clipPath id="SVGID_68_">
				<use xlink:href="#SVGID_67_"  overflow="visible"/>
			</clipPath>
			<path clip-path="url(#SVGID_68_)" fill="none" stroke="#000000" stroke-linejoin="round" stroke-miterlimit="1" d="M10,0h108
				c5.522,0,10,4.478,10,10v20c0,5.523-4.478,10-10,10H10C4.477,40,0,35.523,0,30V10C0,4.477,4.477,0,10,0z"/>
		</g>
	</g>
	<g transform="translate(153,229)" text-rendering="geometricPrecision">
		<g>
			<defs>
				<rect id="SVGID_69_" x="0" y="0" width="128" height="40"/>
			</defs>
			<clipPath id="SVGID_70_">
				<use xlink:href="#SVGID_69_"  overflow="visible"/>
			</clipPath>
			<g clip-path="url(#SVGID_70_)" enable-background="new    ">
				<text transform="matrix(1 0 0 1 43.9998 23.9998)" font-family="'ArialMT'" font-size="11">Validate</text>
			</g>
		</g>
	</g>
	<g transform="translate(641,466)" text-rendering="geometricPrecision">
		<g>
			<defs>
				<rect id="SVGID_71_" x="-7" y="-17" width="146" height="68"/>
			</defs>
			<clipPath id="SVGID_72_">
				<use xlink:href="#SVGID_71_"  overflow="visible"/>
			</clipPath>
			<path clip-path="url(#SVGID_72_)" fill="#EEF57A" d="M10,0h108c5.522,0,10,4.478,10,10v20c0,5.523-4.478,10-10,10H10
				C4.477,40,0,35.523,0,30V10C0,4.477,4.477,0,10,0z"/>
		</g>
	</g>
	<g transform="translate(641,466)" text-rendering="geometricPrecision">
		<g>
			<defs>
				<rect id="SVGID_73_" x="-7" y="-17" width="146" height="68"/>
			</defs>
			<clipPath id="SVGID_74_">
				<use xlink:href="#SVGID_73_"  overflow="visible"/>
			</clipPath>
			<path clip-path="url(#SVGID_74_)" fill="none" stroke="#000000" stroke-linejoin="round" stroke-miterlimit="1" d="M10,0h108
				c5.522,0,10,4.478,10,10v20c0,5.523-4.478,10-10,10H10C4.477,40,0,35.523,0,30V10C0,4.477,4.477,0,10,0z"/>
		</g>
	</g>
	<g transform="translate(641,466)" text-rendering="geometricPrecision">
		<g>
			<defs>
				<rect id="SVGID_75_" x="0" y="0" width="128" height="40"/>
			</defs>
			<clipPath id="SVGID_76_">
				<use xlink:href="#SVGID_75_"  overflow="visible"/>
			</clipPath>
			<g clip-path="url(#SVGID_76_)" enable-background="new    ">
				<text transform="matrix(1 0 0 1 46.9998 23.9998)" font-family="'ArialMT'" font-size="11">Logout</text>
			</g>
		</g>
	</g>
	<g transform="translate(996,477)" text-rendering="geometricPrecision">
		<g>
			<defs>
				<rect id="SVGID_77_" x="-9" y="-9" width="42" height="42"/>
			</defs>
			<clipPath id="SVGID_78_">
				<use xlink:href="#SVGID_77_"  overflow="visible"/>
			</clipPath>
			<circle clip-path="url(#SVGID_78_)" fill="#F57A7A" cx="10" cy="10" r="10"/>
		</g>
	</g>
	<g transform="translate(996,477)" text-rendering="geometricPrecision">
		<g>
			<defs>
				<rect id="SVGID_79_" x="-9" y="-9" width="42" height="42"/>
			</defs>
			<clipPath id="SVGID_80_">
				<use xlink:href="#SVGID_79_"  overflow="visible"/>
			</clipPath>
			
				<circle clip-path="url(#SVGID_80_)" fill="none" stroke="#000000" stroke-width="3" stroke-linejoin="round" stroke-miterlimit="1" cx="10" cy="10" r="10"/>
		</g>
	</g>
	<g transform="translate(1169,315)" text-rendering="geometricPrecision">
		<g>
			<defs>
				<rect id="SVGID_81_" x="0" y="0" width="113" height="129"/>
			</defs>
			<clipPath id="SVGID_82_">
				<use xlink:href="#SVGID_81_"  overflow="visible"/>
			</clipPath>
			<path clip-path="url(#SVGID_82_)" fill="#F3E7F8" d="M8,0C3.581,0,0,3.582,0,8v112c0,4.419,3.581,8,8,8h96c4.418,0,8-3.581,8-8V8
				c0-4.418-3.582-8-8-8H8z"/>
		</g>
	</g>
	<g transform="translate(1169,315)" text-rendering="geometricPrecision">
		<g>
			<defs>
				<rect id="SVGID_83_" x="0" y="0" width="113" height="129"/>
			</defs>
			<clipPath id="SVGID_84_">
				<use xlink:href="#SVGID_83_"  overflow="visible"/>
			</clipPath>
			<path clip-path="url(#SVGID_84_)" fill="none" stroke="#CC93E1" stroke-linejoin="bevel" stroke-miterlimit="1" d="M8,0
				C3.581,0,0,3.582,0,8v112c0,4.419,3.581,8,8,8h96c4.418,0,8-3.581,8-8V8c0-4.418-3.582-8-8-8H8z"/>
		</g>
	</g>
	<g transform="translate(1169,315)" text-rendering="geometricPrecision">
		<g>
			<defs>
				<rect id="SVGID_85_" x="0" y="0" width="113" height="129"/>
			</defs>
			<clipPath id="SVGID_86_">
				<use xlink:href="#SVGID_85_"  overflow="visible"/>
			</clipPath>
			<g clip-path="url(#SVGID_86_)" enable-background="new    ">
				<text transform="matrix(1 0 0 1 5.0002 67.9998)" font-family="'ArialMT'" font-size="10">MARKGEN_iREPORT</text>
			</g>
		</g>
	</g>
	<g transform="translate(1327,2)" text-rendering="geometricPrecision">
		<g>
			<defs>
				<rect id="SVGID_87_" x="0" y="0" width="84" height="508"/>
			</defs>
			<clipPath id="SVGID_88_">
				<use xlink:href="#SVGID_87_"  overflow="visible"/>
			</clipPath>
			<path clip-path="url(#SVGID_88_)" fill="#F3E7F8" d="M8,0C3.581,0,0,3.582,0,8v491c0,4.419,3.581,8,8,8h67c4.418,0,8-3.581,8-8V8
				c0-4.418-3.582-8-8-8H8z"/>
		</g>
	</g>
	<g transform="translate(1327,2)" text-rendering="geometricPrecision">
		<g>
			<defs>
				<rect id="SVGID_89_" x="0" y="0" width="84" height="508"/>
			</defs>
			<clipPath id="SVGID_90_">
				<use xlink:href="#SVGID_89_"  overflow="visible"/>
			</clipPath>
			<path clip-path="url(#SVGID_90_)" fill="none" stroke="#CC93E1" stroke-linejoin="bevel" stroke-miterlimit="1" d="M8,0
				C3.581,0,0,3.582,0,8v491c0,4.419,3.581,8,8,8h67c4.418,0,8-3.581,8-8V8c0-4.418-3.582-8-8-8H8z"/>
		</g>
	</g>
	<g transform="translate(1327,2)" text-rendering="geometricPrecision">
		<g>
			<defs>
				<rect id="SVGID_91_" x="0" y="0" width="84" height="508"/>
			</defs>
			<clipPath id="SVGID_92_">
				<use xlink:href="#SVGID_91_"  overflow="visible"/>
			</clipPath>
			<g clip-path="url(#SVGID_92_)" enable-background="new    ">
				<text transform="matrix(1 0 0 1 18.0002 250.9998)" font-family="'ArialMT'" font-size="11">Retrieve /</text>
			</g>
		</g>
		<g>
			<defs>
				<rect id="SVGID_93_" x="0" y="0" width="84" height="508"/>
			</defs>
			<clipPath id="SVGID_94_">
				<use xlink:href="#SVGID_93_"  overflow="visible"/>
			</clipPath>
			<g clip-path="url(#SVGID_94_)" enable-background="new    ">
				<text transform="matrix(1 0 0 1 12.0002 265.9998)" font-family="'ArialMT'" font-size="11">Persist Data</text>
			</g>
		</g>
	</g>
	<g transform="translate(2,261)" text-rendering="geometricPrecision">
		<g>
			<defs>
				<rect id="SVGID_95_" x="-57" y="-14" width="171" height="42"/>
			</defs>
			<clipPath id="SVGID_96_">
				<use xlink:href="#SVGID_95_"  overflow="visible"/>
			</clipPath>
			<g clip-path="url(#SVGID_96_)" enable-background="new    ">
				<text transform="matrix(1 0 0 1 10.9998 11.9998)" font-family="'ArialMT'" font-size="11">START</text>
			</g>
		</g>
	</g>
	<g transform="translate(983,498)" text-rendering="geometricPrecision">
		<g>
			<defs>
				<rect id="SVGID_97_" x="-44" y="-15" width="132" height="45"/>
			</defs>
			<clipPath id="SVGID_98_">
				<use xlink:href="#SVGID_97_"  overflow="visible"/>
			</clipPath>
			<g clip-path="url(#SVGID_98_)" enable-background="new    ">
				<text transform="matrix(1 0 0 1 12.0002 11.9998)" font-family="'ArialMT'" font-size="11">END</text>
			</g>
		</g>
	</g>
	<g transform="translate(797,140)" text-rendering="geometricPrecision">
		<g>
			<defs>
				<rect id="SVGID_99_" x="0" y="0" width="240" height="171"/>
			</defs>
			<clipPath id="SVGID_100_">
				<use xlink:href="#SVGID_99_"  overflow="visible"/>
			</clipPath>
			<path clip-path="url(#SVGID_100_)" fill="none" stroke="#000000" stroke-linejoin="round" stroke-miterlimit="10" d="M40,40v80
				c0,0,0,7,7,7 M47,127h151"/>
		</g>
		<g>
			<defs>
				<rect id="SVGID_101_" x="0" y="0" width="240" height="171"/>
			</defs>
			<clipPath id="SVGID_102_">
				<use xlink:href="#SVGID_101_"  overflow="visible"/>
			</clipPath>
			<polygon clip-path="url(#SVGID_102_)" points="198,127 189,123 189,131 			"/>
		</g>
		<g>
			<defs>
				<rect id="SVGID_103_" x="0" y="0" width="240" height="171"/>
			</defs>
			<clipPath id="SVGID_104_">
				<use xlink:href="#SVGID_103_"  overflow="visible"/>
			</clipPath>
			<polygon clip-path="url(#SVGID_104_)" fill="none" stroke="#000000" stroke-linejoin="round" stroke-miterlimit="10" points="
				198,127 189,123 189,131 			"/>
		</g>
	</g>
	<g transform="translate(856,124)" text-rendering="geometricPrecision">
		<g>
			<defs>
				<rect id="SVGID_105_" x="0" y="0" width="180" height="119"/>
			</defs>
			<clipPath id="SVGID_106_">
				<use xlink:href="#SVGID_105_"  overflow="visible"/>
			</clipPath>
			<path clip-path="url(#SVGID_106_)" fill="none" stroke="#000000" stroke-linejoin="round" stroke-miterlimit="10" d="M40,40h23
				c0,0,7,0,7,7 M70,47v21c0,0,0,7,7,7 M77,75h61"/>
		</g>
		<g>
			<defs>
				<rect id="SVGID_107_" x="0" y="0" width="180" height="119"/>
			</defs>
			<clipPath id="SVGID_108_">
				<use xlink:href="#SVGID_107_"  overflow="visible"/>
			</clipPath>
			<polygon clip-path="url(#SVGID_108_)" points="138,75 129,71 129,79 			"/>
		</g>
		<g>
			<defs>
				<rect id="SVGID_109_" x="0" y="0" width="180" height="119"/>
			</defs>
			<clipPath id="SVGID_110_">
				<use xlink:href="#SVGID_109_"  overflow="visible"/>
			</clipPath>
			<polygon clip-path="url(#SVGID_110_)" fill="none" stroke="#000000" stroke-linejoin="round" stroke-miterlimit="10" points="
				138,75 129,71 129,79 			"/>
		</g>
	</g>
	<g transform="translate(856,76)" text-rendering="geometricPrecision">
		<g>
			<defs>
				<rect id="SVGID_111_" x="0" y="0" width="180" height="119"/>
			</defs>
			<clipPath id="SVGID_112_">
				<use xlink:href="#SVGID_111_"  overflow="visible"/>
			</clipPath>
			<path clip-path="url(#SVGID_112_)" fill="none" stroke="#000000" stroke-linejoin="round" stroke-miterlimit="10" d="M40,75h21
				c0,0,7,0,7-7 M68,68V47c0,0,0-7,7-7 M75,40h63"/>
		</g>
		<g>
			<defs>
				<rect id="SVGID_113_" x="0" y="0" width="180" height="119"/>
			</defs>
			<clipPath id="SVGID_114_">
				<use xlink:href="#SVGID_113_"  overflow="visible"/>
			</clipPath>
			<polygon clip-path="url(#SVGID_114_)" points="138,40 129,36 129,44 			"/>
		</g>
		<g>
			<defs>
				<rect id="SVGID_115_" x="0" y="0" width="180" height="119"/>
			</defs>
			<clipPath id="SVGID_116_">
				<use xlink:href="#SVGID_115_"  overflow="visible"/>
			</clipPath>
			<polygon clip-path="url(#SVGID_116_)" fill="none" stroke="#000000" stroke-linejoin="round" stroke-miterlimit="10" points="
				138,40 129,36 129,44 			"/>
		</g>
	</g>
	<g transform="translate(797,14)" text-rendering="geometricPrecision">
		<g>
			<defs>
				<rect id="SVGID_117_" x="0" y="0" width="240" height="168"/>
			</defs>
			<clipPath id="SVGID_118_">
				<use xlink:href="#SVGID_117_"  overflow="visible"/>
			</clipPath>
			<path clip-path="url(#SVGID_118_)" fill="none" stroke="#000000" stroke-linejoin="round" stroke-miterlimit="10" d="M40,126V46
				c0,0,0-7,7-7 M47,39h151"/>
		</g>
		<g>
			<defs>
				<rect id="SVGID_119_" x="0" y="0" width="240" height="168"/>
			</defs>
			<clipPath id="SVGID_120_">
				<use xlink:href="#SVGID_119_"  overflow="visible"/>
			</clipPath>
			<polygon clip-path="url(#SVGID_120_)" points="198,39 189,35 189,43 			"/>
		</g>
		<g>
			<defs>
				<rect id="SVGID_121_" x="0" y="0" width="240" height="168"/>
			</defs>
			<clipPath id="SVGID_122_">
				<use xlink:href="#SVGID_121_"  overflow="visible"/>
			</clipPath>
			<polygon clip-path="url(#SVGID_122_)" fill="none" stroke="#000000" stroke-linejoin="round" stroke-miterlimit="10" points="
				198,39 189,35 189,43 			"/>
		</g>
	</g>
	<g transform="translate(856,292)" text-rendering="geometricPrecision">
		<g>
			<defs>
				<rect id="SVGID_123_" x="0" y="0" width="180" height="114"/>
			</defs>
			<clipPath id="SVGID_124_">
				<use xlink:href="#SVGID_123_"  overflow="visible"/>
			</clipPath>
			<path clip-path="url(#SVGID_124_)" fill="none" stroke="#000000" stroke-linejoin="round" stroke-miterlimit="10" d="M40,70h33
				c0,0,7,0,7-7 M80,63V49c0,0,0-7,7-7 M87,42h51"/>
		</g>
		<g>
			<defs>
				<rect id="SVGID_125_" x="0" y="0" width="180" height="114"/>
			</defs>
			<clipPath id="SVGID_126_">
				<use xlink:href="#SVGID_125_"  overflow="visible"/>
			</clipPath>
			<polygon clip-path="url(#SVGID_126_)" points="138,42 129,38 129,46 			"/>
		</g>
		<g>
			<defs>
				<rect id="SVGID_127_" x="0" y="0" width="180" height="114"/>
			</defs>
			<clipPath id="SVGID_128_">
				<use xlink:href="#SVGID_127_"  overflow="visible"/>
			</clipPath>
			<polygon clip-path="url(#SVGID_128_)" fill="none" stroke="#000000" stroke-linejoin="round" stroke-miterlimit="10" points="
				138,42 129,38 129,46 			"/>
		</g>
	</g>
	<g transform="translate(856,341)" text-rendering="geometricPrecision">
		<g>
			<defs>
				<rect id="SVGID_129_" x="0" y="0" width="183" height="115"/>
			</defs>
			<clipPath id="SVGID_130_">
				<use xlink:href="#SVGID_129_"  overflow="visible"/>
			</clipPath>
			<path clip-path="url(#SVGID_130_)" fill="none" stroke="#000000" stroke-linejoin="round" stroke-miterlimit="10" d="M40,40h33
				c0,0,7,0,7,7 M80,47v17c0,0,0,7,7,7 M87,71h52"/>
		</g>
		<g>
			<defs>
				<rect id="SVGID_131_" x="0" y="0" width="183" height="115"/>
			</defs>
			<clipPath id="SVGID_132_">
				<use xlink:href="#SVGID_131_"  overflow="visible"/>
			</clipPath>
			<polygon clip-path="url(#SVGID_132_)" points="139,71 130,67 130,75 			"/>
		</g>
		<g>
			<defs>
				<rect id="SVGID_133_" x="0" y="0" width="183" height="115"/>
			</defs>
			<clipPath id="SVGID_134_">
				<use xlink:href="#SVGID_133_"  overflow="visible"/>
			</clipPath>
			<polygon clip-path="url(#SVGID_134_)" fill="none" stroke="#000000" stroke-linejoin="round" stroke-miterlimit="10" points="
				139,71 130,67 130,75 			"/>
		</g>
	</g>
	<g transform="translate(475,110)" text-rendering="geometricPrecision">
		<g>
			<defs>
				<rect id="SVGID_135_" x="0" y="0" width="347" height="172"/>
			</defs>
			<clipPath id="SVGID_136_">
				<use xlink:href="#SVGID_135_"  overflow="visible"/>
			</clipPath>
			<path clip-path="url(#SVGID_136_)" fill="none" stroke="#000000" stroke-linejoin="round" stroke-miterlimit="10" d="M50,118V57
				c0,0,0-7,7-7 M57,50h236"/>
		</g>
		<g>
			<defs>
				<rect id="SVGID_137_" x="0" y="0" width="347" height="172"/>
			</defs>
			<clipPath id="SVGID_138_">
				<use xlink:href="#SVGID_137_"  overflow="visible"/>
			</clipPath>
			<polygon clip-path="url(#SVGID_138_)" points="293,50 284,46 284,54 			"/>
		</g>
		<g>
			<defs>
				<rect id="SVGID_139_" x="0" y="0" width="347" height="172"/>
			</defs>
			<clipPath id="SVGID_140_">
				<use xlink:href="#SVGID_139_"  overflow="visible"/>
			</clipPath>
			<polygon clip-path="url(#SVGID_140_)" fill="none" stroke="#000000" stroke-linejoin="round" stroke-miterlimit="10" points="
				293,50 284,46 284,54 			"/>
		</g>
	</g>
	<g transform="translate(475,219)" text-rendering="geometricPrecision">
		<g>
			<defs>
				<rect id="SVGID_141_" x="0" y="0" width="347" height="207"/>
			</defs>
			<clipPath id="SVGID_142_">
				<use xlink:href="#SVGID_141_"  overflow="visible"/>
			</clipPath>
			<path clip-path="url(#SVGID_142_)" fill="none" stroke="#000000" stroke-linejoin="round" stroke-miterlimit="10" d="M50,50v96
				c0,0,0,7,7,7 M57,153h236"/>
		</g>
		<g>
			<defs>
				<rect id="SVGID_143_" x="0" y="0" width="347" height="207"/>
			</defs>
			<clipPath id="SVGID_144_">
				<use xlink:href="#SVGID_143_"  overflow="visible"/>
			</clipPath>
			<polygon clip-path="url(#SVGID_144_)" points="293,153 284,149 284,157 			"/>
		</g>
		<g>
			<defs>
				<rect id="SVGID_145_" x="0" y="0" width="347" height="207"/>
			</defs>
			<clipPath id="SVGID_146_">
				<use xlink:href="#SVGID_145_"  overflow="visible"/>
			</clipPath>
			<polygon clip-path="url(#SVGID_146_)" fill="none" stroke="#000000" stroke-linejoin="round" stroke-miterlimit="10" points="
				293,153 284,149 284,157 			"/>
		</g>
	</g>
	<g transform="translate(427,-29)" text-rendering="geometricPrecision">
		<g>
			<defs>
				<rect id="SVGID_147_" x="0" y="0" width="267" height="311"/>
			</defs>
			<clipPath id="SVGID_148_">
				<use xlink:href="#SVGID_147_"  overflow="visible"/>
			</clipPath>
			<path clip-path="url(#SVGID_148_)" fill="none" stroke="#000000" stroke-linejoin="round" stroke-miterlimit="10" d="M50,257V57
				c0,0,0-7,7-7 M57,50h156"/>
		</g>
		<g>
			<defs>
				<rect id="SVGID_149_" x="0" y="0" width="267" height="311"/>
			</defs>
			<clipPath id="SVGID_150_">
				<use xlink:href="#SVGID_149_"  overflow="visible"/>
			</clipPath>
			<polygon clip-path="url(#SVGID_150_)" points="213,50 204,46 204,54 			"/>
		</g>
		<g>
			<defs>
				<rect id="SVGID_151_" x="0" y="0" width="267" height="311"/>
			</defs>
			<clipPath id="SVGID_152_">
				<use xlink:href="#SVGID_151_"  overflow="visible"/>
			</clipPath>
			<polygon clip-path="url(#SVGID_152_)" fill="none" stroke="#000000" stroke-linejoin="round" stroke-miterlimit="10" points="
				213,50 204,46 204,54 			"/>
		</g>
	</g>
	<g transform="translate(0,208)" text-rendering="geometricPrecision">
		<g>
			<defs>
				<path id="SVGID_153_" d="M59,53v14H2V53H59z M0,0v84h195V0H0z"/>
			</defs>
			<clipPath id="SVGID_154_">
				<use xlink:href="#SVGID_153_"  overflow="visible"/>
			</clipPath>
			
				<line clip-path="url(#SVGID_154_)" fill="none" stroke="#000000" stroke-linejoin="round" stroke-miterlimit="10" x1="40" y1="40" x2="151" y2="40"/>
		</g>
		<g>
			<defs>
				<path id="SVGID_155_" d="M59,53v14H2V53H59z M0,0v84h195V0H0z"/>
			</defs>
			<clipPath id="SVGID_156_">
				<use xlink:href="#SVGID_155_"  overflow="visible"/>
			</clipPath>
			<polygon clip-path="url(#SVGID_156_)" points="151,40 142,36 142,44 			"/>
		</g>
		<g>
			<defs>
				<path id="SVGID_157_" d="M59,53v14H2V53H59z M0,0v84h195V0H0z"/>
			</defs>
			<clipPath id="SVGID_158_">
				<use xlink:href="#SVGID_157_"  overflow="visible"/>
			</clipPath>
			<polygon clip-path="url(#SVGID_158_)" fill="none" stroke="#000000" stroke-linejoin="round" stroke-miterlimit="10" points="
				151,40 142,36 142,44 			"/>
		</g>
	</g>
	<g transform="translate(240,209)" text-rendering="geometricPrecision">
		<g>
			<defs>
				<rect id="SVGID_159_" x="0" y="0" width="227" height="84"/>
			</defs>
			<clipPath id="SVGID_160_">
				<use xlink:href="#SVGID_159_"  overflow="visible"/>
			</clipPath>
			
				<line clip-path="url(#SVGID_160_)" fill="none" stroke="#000000" stroke-linejoin="round" stroke-miterlimit="10" x1="40" y1="39" x2="183" y2="39"/>
		</g>
		<g>
			<defs>
				<rect id="SVGID_161_" x="0" y="0" width="227" height="84"/>
			</defs>
			<clipPath id="SVGID_162_">
				<use xlink:href="#SVGID_161_"  overflow="visible"/>
			</clipPath>
			<polygon clip-path="url(#SVGID_162_)" points="183,39 174,35 174,43 			"/>
		</g>
		<g>
			<defs>
				<rect id="SVGID_163_" x="0" y="0" width="227" height="84"/>
			</defs>
			<clipPath id="SVGID_164_">
				<use xlink:href="#SVGID_163_"  overflow="visible"/>
			</clipPath>
			<polygon clip-path="url(#SVGID_164_)" fill="none" stroke="#000000" stroke-linejoin="round" stroke-miterlimit="10" points="
				183,39 174,35 174,43 			"/>
		</g>
	</g>
	<g transform="translate(427,219)" text-rendering="geometricPrecision">
		<g>
			<defs>
				<rect id="SVGID_165_" x="0" y="0" width="267" height="319"/>
			</defs>
			<clipPath id="SVGID_166_">
				<use xlink:href="#SVGID_165_"  overflow="visible"/>
			</clipPath>
			<path clip-path="url(#SVGID_166_)" fill="none" stroke="#000000" stroke-linejoin="round" stroke-miterlimit="10" d="M50,50v208
				c0,0,0,7,7,7 M57,265h156"/>
		</g>
		<g>
			<defs>
				<rect id="SVGID_167_" x="0" y="0" width="267" height="319"/>
			</defs>
			<clipPath id="SVGID_168_">
				<use xlink:href="#SVGID_167_"  overflow="visible"/>
			</clipPath>
			<polygon clip-path="url(#SVGID_168_)" points="213,265 204,261 204,269 			"/>
		</g>
		<g>
			<defs>
				<rect id="SVGID_169_" x="0" y="0" width="267" height="319"/>
			</defs>
			<clipPath id="SVGID_170_">
				<use xlink:href="#SVGID_169_"  overflow="visible"/>
			</clipPath>
			<polygon clip-path="url(#SVGID_170_)" fill="none" stroke="#000000" stroke-linejoin="round" stroke-miterlimit="10" points="
				213,265 204,261 204,269 			"/>
		</g>
	</g>
	<g transform="translate(728,444)" text-rendering="geometricPrecision">
		<g>
			<defs>
				<path id="SVGID_171_" d="M299,54v15h-44V54H299z M0,0v84h311V0H0z"/>
			</defs>
			<clipPath id="SVGID_172_">
				<use xlink:href="#SVGID_171_"  overflow="visible"/>
			</clipPath>
			
				<line clip-path="url(#SVGID_172_)" fill="none" stroke="#000000" stroke-linejoin="round" stroke-miterlimit="10" x1="40" y1="41" x2="267" y2="41"/>
		</g>
		<g>
			<defs>
				<path id="SVGID_173_" d="M299,54v15h-44V54H299z M0,0v84h311V0H0z"/>
			</defs>
			<clipPath id="SVGID_174_">
				<use xlink:href="#SVGID_173_"  overflow="visible"/>
			</clipPath>
			<polygon clip-path="url(#SVGID_174_)" points="267,41 258,37 258,45 			"/>
		</g>
		<g>
			<defs>
				<path id="SVGID_175_" d="M299,54v15h-44V54H299z M0,0v84h311V0H0z"/>
			</defs>
			<clipPath id="SVGID_176_">
				<use xlink:href="#SVGID_175_"  overflow="visible"/>
			</clipPath>
			<polygon clip-path="url(#SVGID_176_)" fill="none" stroke="#000000" stroke-linejoin="round" stroke-miterlimit="10" points="
				267,41 258,37 258,45 			"/>
		</g>
	</g>
	<g transform="translate(1074,285)" text-rendering="geometricPrecision">
		<g>
			<defs>
				<rect id="SVGID_177_" x="0" y="0" width="148" height="104"/>
			</defs>
			<clipPath id="SVGID_178_">
				<use xlink:href="#SVGID_177_"  overflow="visible"/>
			</clipPath>
			
				<line clip-path="url(#SVGID_178_)" fill="none" stroke="#000000" stroke-linejoin="round" stroke-miterlimit="1" x1="50" y1="50" x2="94" y2="50"/>
		</g>
	</g>
	<g transform="translate(1074,362)" text-rendering="geometricPrecision">
		<g>
			<defs>
				<rect id="SVGID_179_" x="0" y="0" width="148" height="104"/>
			</defs>
			<clipPath id="SVGID_180_">
				<use xlink:href="#SVGID_179_"  overflow="visible"/>
			</clipPath>
			
				<line clip-path="url(#SVGID_180_)" fill="none" stroke="#000000" stroke-linejoin="round" stroke-miterlimit="1" x1="50" y1="50" x2="94" y2="50"/>
		</g>
	</g>
	<g transform="translate(1074,3)" text-rendering="geometricPrecision">
		<g>
			<defs>
				<rect id="SVGID_181_" x="0" y="0" width="306" height="104"/>
			</defs>
			<clipPath id="SVGID_182_">
				<use xlink:href="#SVGID_181_"  overflow="visible"/>
			</clipPath>
			
				<line clip-path="url(#SVGID_182_)" fill="none" stroke="#000000" stroke-linejoin="round" stroke-miterlimit="1" x1="50" y1="50" x2="252" y2="50"/>
		</g>
	</g>
	<g transform="translate(1074,66)" text-rendering="geometricPrecision">
		<g>
			<defs>
				<rect id="SVGID_183_" x="0" y="0" width="306" height="104"/>
			</defs>
			<clipPath id="SVGID_184_">
				<use xlink:href="#SVGID_183_"  overflow="visible"/>
			</clipPath>
			
				<line clip-path="url(#SVGID_184_)" fill="none" stroke="#000000" stroke-linejoin="round" stroke-miterlimit="1" x1="50" y1="50" x2="252" y2="50"/>
		</g>
	</g>
	<g transform="translate(1074,149)" text-rendering="geometricPrecision">
		<g>
			<defs>
				<rect id="SVGID_185_" x="0" y="0" width="306" height="104"/>
			</defs>
			<clipPath id="SVGID_186_">
				<use xlink:href="#SVGID_185_"  overflow="visible"/>
			</clipPath>
			
				<line clip-path="url(#SVGID_186_)" fill="none" stroke="#000000" stroke-linejoin="round" stroke-miterlimit="1" x1="50" y1="50" x2="252" y2="50"/>
		</g>
	</g>
	<g transform="translate(1074,217)" text-rendering="geometricPrecision">
		<g>
			<defs>
				<rect id="SVGID_187_" x="0" y="0" width="306" height="104"/>
			</defs>
			<clipPath id="SVGID_188_">
				<use xlink:href="#SVGID_187_"  overflow="visible"/>
			</clipPath>
			
				<line clip-path="url(#SVGID_188_)" fill="none" stroke="#000000" stroke-linejoin="round" stroke-miterlimit="1" x1="50" y1="50" x2="252" y2="50"/>
		</g>
	</g>
	<g transform="translate(653,404)" text-rendering="geometricPrecision">
		<g>
			<defs>
				<path id="SVGID_189_" d="M374,94v15h-44V94H374z M0,0v115h727V0H0z"/>
			</defs>
			<clipPath id="SVGID_190_">
				<use xlink:href="#SVGID_189_"  overflow="visible"/>
			</clipPath>
			<path clip-path="url(#SVGID_190_)" fill="none" stroke="#000000" stroke-linejoin="round" stroke-miterlimit="1" d="M50,61v-6
				c0,0,0-5,7-5 M57,50h616"/>
		</g>
	</g>
	<g transform="translate(719,-27)" text-rendering="geometricPrecision">
		<g>
			<defs>
				<rect id="SVGID_191_" x="0" y="0" width="661" height="104"/>
			</defs>
			<clipPath id="SVGID_192_">
				<use xlink:href="#SVGID_191_"  overflow="visible"/>
			</clipPath>
			
				<line clip-path="url(#SVGID_192_)" fill="none" stroke="#000000" stroke-linejoin="round" stroke-miterlimit="1" x1="50" y1="50" x2="607" y2="50"/>
		</g>
	</g>
</g>
</svg>
